HIERARCHY
ROOT SpineBase
{
  OFFSET 0.000000 0.000000 0.000000
  CHANNELS 6 Xposition Yposition Zposition Zrotation Xrotation Yrotation
  JOINT SpineMid
  {
    OFFSET 0.000000 30.621492 0.000000
    CHANNELS 3 Zrotation Xrotation Yrotation
    JOINT SpineShoulder
    {
      OFFSET 0.147324 22.726566 -0.801188
      CHANNELS 3 Zrotation Xrotation Yrotation
      JOINT Neck
      {
        OFFSET 0.124672 7.517398 -0.591091
        CHANNELS 3 Zrotation Xrotation Yrotation
        JOINT Head
        {
          OFFSET 4.820921 13.644186 0.568343
          CHANNELS 3 Zrotation Xrotation Yrotation
          End Site
          {
            OFFSET 0 0 0
          }
        }
      }
      JOINT ShoulderLeft
      {
        OFFSET -11.422359 -2.101065 -12.672715
        CHANNELS 3 Zrotation Xrotation Yrotation
        JOINT ElbowLeft
        {
          OFFSET -6.781493 -25.502985 -6.779250
          CHANNELS 3 Zrotation Xrotation Yrotation
          JOINT WristLeft
          {
            OFFSET 0.093154 -23.777314 -4.597816
            CHANNELS 3 Zrotation Xrotation Yrotation
            JOINT HandLeft
            {
              OFFSET -0.661348 -7.949818 1.676377
              CHANNELS 3 Zrotation Xrotation Yrotation
              JOINT HandTipLeft
              {
                OFFSET 0.737003 -7.930722 -0.123267
                CHANNELS 3 Zrotation Xrotation Yrotation
                End Site
                {
                  OFFSET 0 0 0
                }
              }
              JOINT ThumbLeft
              {
                OFFSET 3.486222 0.634932 0.552494
                CHANNELS 3 Zrotation Xrotation Yrotation
                End Site
                {
                  OFFSET 0 0 0
                }
              }
            }
          }
        }
      }
      JOINT ShoulderRight
      {
        OFFSET 12.115407 -4.447422 13.216824
        CHANNELS 3 Zrotation Xrotation Yrotation
        JOINT ElbowRight
        {
          OFFSET 2.069450 -32.060107 4.353264
          CHANNELS 3 Zrotation Xrotation Yrotation
          JOINT WristRight
          {
            OFFSET -0.216089 -24.058695 -1.946525
            CHANNELS 3 Zrotation Xrotation Yrotation
            JOINT HandRight
            {
              OFFSET 0.407923 -3.473836 1.678525
              CHANNELS 3 Zrotation Xrotation Yrotation
              JOINT HandTipRight
              {
                OFFSET -1.081189 -5.193707 -1.876823
                CHANNELS 3 Zrotation Xrotation Yrotation
                End Site
                {
                  OFFSET 0 0 0
                }
              }
              JOINT ThumbRight
              {
                OFFSET 3.064666 -0.189290 -0.860012
                CHANNELS 3 Zrotation Xrotation Yrotation
                End Site
                {
                  OFFSET 0 0 0
                }
              }
            }
          }
        }
      }
    }
  }
  JOINT HipLeft
  {
    OFFSET -4.305172 1.828576 -8.984061
    CHANNELS 3 Zrotation Xrotation Yrotation
    JOINT KneeLeft
    {
      OFFSET -7.144886 -34.328082 -2.682253
      CHANNELS 3 Zrotation Xrotation Yrotation
      JOINT AnkleLeft
      {
        OFFSET -4.728714 -38.149172 10.346759
        CHANNELS 3 Zrotation Xrotation Yrotation
        JOINT FootLeft
        {
          OFFSET 4.937695 -4.165984 -6.210289
          CHANNELS 3 Zrotation Xrotation Yrotation
          End Site
          {
            OFFSET 0 0 0
          }
        }
      }
    }
  }
  JOINT HipRight
  {
    OFFSET 6.047684 0.011211 2.056393
    CHANNELS 3 Zrotation Xrotation Yrotation
    JOINT KneeRight
    {
      OFFSET 0.190289 -37.647023 -1.630989
      CHANNELS 3 Zrotation Xrotation Yrotation
      JOINT AnkleRight
      {
        OFFSET -13.081444 -35.278135 9.134517
        CHANNELS 3 Zrotation Xrotation Yrotation
        JOINT FootRight
        {
          OFFSET -0.499055 -5.310944 -5.869100
          CHANNELS 3 Zrotation Xrotation Yrotation
          End Site
          {
            OFFSET 0 0 0
          }
        }
      }
    }
  }
}
MOTION
Frames: 6
Frame Time: 0.033333
-81.175073 79.391587 313.748758 -0.000000 0.000000 -46.840898 -0.000000 0.000000 46.840898 -0.000000 0.000000 0.000000 -0.000000 0.000000 0.000000 0.000000 0.000000 0.000000 -0.000000 0.000000 0.000000 -0.000000 0.000000 0.000000 -0.000000 0.000000 0.000000 -0.000000 0.000000 0.000000 0.000000 0.000000 0.000000 0.000000 0.000000 0.000000 -0.000000 0.000000 0.000000 -0.000000 0.000000 0.000000 -0.000000 0.000000 0.000000 -0.000000 0.000000 0.000000 0.000000 0.000000 0.000000 0.000000 0.000000 0.000000 -0.000000 0.000000 46.840898 -0.000000 0.000000 0.000000 -0.000000 0.000000 0.000000 0.000000 0.000000 0.000000 -0.000000 0.000000 46.840898 -0.000000 0.000000 0.000000 -0.000000 0.000000 0.000000 0.000000 0.000000 0.000000
-81.112986 79.573717 313.937189 0.042374 -0.155574 -46.719885 -0.142310 0.075808 46.720037 -0.000000 0.000000 0.000000 -0.000000 0.000000 0.000000 0.000000 0.000000 0.000000 0.313854 -0.764686 0.122311 -0.312249 0.765343 -0.118131 5.447303 -0.780187 1.254673 -6.077232 -0.725871 -1.316579 0.000000 0.000000 0.000000 0.000000 0.000000 0.000000 -0.000000 0.000000 0.000000 3.314991 -0.940223 -0.232844 -4.512998 2.720608 -0.038753 1.350707 -7.676009 1.601934 0.000000 0.000000 0.000000 0.000000 0.000000 0.000000 -0.142310 0.075808 46.720037 -0.000000 0.000000 0.000000 -5.223381 -7.341375 -1.477734 0.000000 0.000000 0.000000 -0.162944 -1.098968 46.753535 0.380753 1.867787 -0.555198 2.959926 -1.516591 -2.099655 0.000000 0.000000 0.000000
-81.051037 79.751427 314.127061 0.076620 -0.307106 -46.548011 -0.275640 0.155588 46.548591 -0.000000 0.000000 0.000000 1.024042 0.722887 -0.305423 0.000000 0.000000 0.000000 0.609207 -1.414574 0.222793 -1.014805 0.142620 -0.128476 11.330924 0.123573 2.206222 -11.759879 -1.250490 -2.519756 0.000000 0.000000 0.000000 0.000000 0.000000 0.000000 -0.000000 0.000000 0.000000 6.161583 -1.628660 -0.397353 -8.491256 5.623961 0.086057 2.676413 -14.090776 2.849984 0.000000 0.000000 0.000000 0.000000 0.000000 0.000000 0.884002 0.330645 46.621747 -0.923700 0.722643 -0.072252 -10.049483 -13.521211 -3.163891 0.000000 0.000000 0.000000 -0.361318 -2.081014 46.612635 0.826974 3.518081 -1.031815 5.444709 -2.877885 -3.787273 0.000000 0.000000 0.000000
-80.989227 79.924717 314.318373 0.102737 -0.454632 -46.325258 -0.399772 0.239642 46.326502 -0.000000 0.000000 0.000000 1.418723 0.987962 -0.422112 0.000000 0.000000 0.000000 0.886825 -1.952736 0.300654 -1.181023 0.315535 -0.213540 16.310261 0.658739 3.130737 -16.622688 -1.752705 -3.579848 0.000000 0.000000 0.000000 0.000000 0.000000 0.000000 0.723566 -0.613053 0.062478 7.794157 -1.455138 -0.665477 -11.826838 8.571554 0.353603 3.790772 -19.522326 3.781661 0.000000 0.000000 0.000000 0.000000 0.000000 0.000000 1.138051 0.547799 46.402989 -1.283609 0.901235 -0.076960 -14.081387 -18.160449 -4.662594 0.000000 0.000000 0.000000 -0.596474 -2.949700 46.417362 1.339707 4.949325 -1.435868 7.431197 -4.049088 -5.081904 0.000000 0.000000 0.000000
-80.927556 80.093587 314.511125 0.120722 -0.598186 -46.052016 -0.514464 0.328221 46.054120 -0.000000 0.000000 0.000000 1.733975 1.189032 -0.512883 0.000000 0.000000 0.000000 1.147457 -2.381176 0.354993 -1.121132 0.557703 -0.319371 20.265177 1.588494 3.795474 -20.240203 -2.396624 -4.480441 0.000000 0.000000 0.000000 0.000000 0.000000 0.000000 1.044815 -0.843450 0.094969 9.338577 -1.395122 -0.854140 -14.437399 11.370988 0.720171 4.547457 -24.041682 4.388686 0.000000 0.000000 0.000000 0.000000 0.000000 0.000000 1.277412 0.800015 46.113364 -1.582134 0.964454 -0.063571 -17.011975 -21.180724 -5.602851 0.000000 0.000000 0.000000 -0.869393 -3.708023 46.167525 1.919970 6.160805 -1.772010 8.909122 -5.006906 -6.012028 0.000000 0.000000 0.000000
-80.866023 80.258038 314.705318 0.130564 -0.737800 -45.729092 -0.619453 0.421521 45.732211 -0.000000 0.000000 0.000000 1.969247 1.326360 -0.576718 0.000000 0.000000 0.000000 1.391831 -2.700782 0.384764 -0.835889 0.868981 -0.450106 22.846911 2.894941 4.134820 -22.264322 -3.296524 -5.192554 0.000000 0.000000 0.000000 0.000000 0.000000 0.000000 1.406611 -1.087033 0.133902 10.352925 -1.056228 -1.048948 -16.278097 13.821578 1.123982 4.847595 -27.583983 4.640661 0.000000 0.000000 0.000000 0.000000 0.000000 0.000000 1.307648 1.089201 45.754652 -1.822697 0.914815 -0.033296 -18.656711 -22.644472 -5.722461 0.000000 0.000000 0.000000 -1.180673 -4.358367 45.863592 2.568672 7.152380 -2.043478 9.876204 -5.737931 -6.608553 0.000000 0.000000 0.000000
